REM MD5 e744886e76f5fda06ac48b023e781036
FILE "Eidos Demo CD Volume 3 (USA).bin" BINARY
  TRACK 01 MODE2/2352
    INDEX 01 00:00:00
  TRACK 02 AUDIO
    INDEX 00 17:57:38
    INDEX 01 17:59:38
  TRACK 03 AUDIO
    INDEX 00 20:25:32
    INDEX 01 20:27:32
  TRACK 04 AUDIO
    INDEX 00 20:48:12
    INDEX 01 20:50:12
  TRACK 05 AUDIO
    INDEX 00 23:24:65
    INDEX 01 23:26:65
  TRACK 06 AUDIO
    INDEX 00 25:46:08
    INDEX 01 25:48:08
REM LEADOUT 25:54:04
